<?xml version="1.0" encoding="utf-8"?>
<!-- Generator: Adobe Illustrator 17.0.0, SVG Export Plug-In . SVG Version: 6.00 Build 0)  -->
<!DOCTYPE svg PUBLIC "-//W3C//DTD SVG 1.1//EN" "http://www.w3.org/Graphics/SVG/1.1/DTD/svg11.dtd">
<svg version="1.1" id="Layer_1" xmlns="http://www.w3.org/2000/svg" xmlns:xlink="http://www.w3.org/1999/xlink" x="0px" y="0px"
	 width="316px" height="316px" viewBox="0 0 316 316" enable-background="new 0 0 316 316" xml:space="preserve">
<g>
	<g>
		<path fill="#FECB0C" d="M316.984,35.626c0.399-0.058-122.501-0.083-122.501-0.083s-6.484,6.496-14.415,14.485H0.146v43.205h0.001
			l0.012,187.224H317L316.984,35.626z M14.547,64.43h151.272c-8.075,8.2-14.63,14.948-14.336,14.952c0,0-99.127-0.314-136.936-0.471
			V64.43z M302.582,266.054H14.547V93.233c-0.462,0,144.018,0,144.018,0l43.205-43.205c0,0,102.123-0.088,100.812,0V266.054z
			 M187.368,107.635c2.417,0,28.804,0,28.804,0c11.239,0,14.402,15.678,14.402,28.804c0,0-42.671,0-43.205,0v14.402
			c0.622,0,43.205,0,43.205,0c0,14.664-10.662,28.804-28.804,28.804h-14.402v14.402c0,0.725,54.668,41.038,57.485,43.115
			c2.404-0.22,15.396-0.761,21.893-0.761c2.618,0-59.067-42.9-59.067-42.9s37.296-9.71,37.296-42.66c0,0,28.178,0.016,28.803,0
			v-14.402c-2.456,0-28.803,0-28.803,0c0-15.121-3.876-27.828-8.574-28.718c9.411-0.003,33.636-0.085,37.378-0.085V93.233h-86.411
			V107.635z M244.975,237.251c0,0-0.047-0.035-0.122-0.09C244.325,237.209,244.3,237.242,244.975,237.251z"/>
	</g>
</g>
</svg>
