<?xml version="1.0" encoding="utf-8"?>
<!-- Generator: Adobe Illustrator 17.0.0, SVG Export Plug-In . SVG Version: 6.00 Build 0)  -->
<!DOCTYPE svg PUBLIC "-//W3C//DTD SVG 1.1//EN" "http://www.w3.org/Graphics/SVG/1.1/DTD/svg11.dtd">
<svg version="1.1" xmlns="http://www.w3.org/2000/svg" xmlns:xlink="http://www.w3.org/1999/xlink" x="0px" y="0px"
	 width="352.617px" height="254px" viewBox="0 0 352.617 254" enable-background="new 0 0 352.617 254" xml:space="preserve">
<g id="Layer_1">
</g>
<g id="Layer_2">
	<g>
		<g>
			<path fill-rule="evenodd" clip-rule="evenodd" fill="#333333" d="M290.785,35.403H61.788c-6.826,0-12.287,5.504-12.332,12.329
				v0.132v158.273v0.133c0.089,6.825,5.506,12.329,12.332,12.329h228.997c6.87,0,12.331-5.592,12.331-12.462V47.864
				C303.115,40.994,297.655,35.403,290.785,35.403z M288.023,199.222c-0.44,3.04-2.773,5.286-5.768,5.286H70.319
				c-3.04,0-5.33-2.159-5.771-5.154v-79.401h223.475V199.222z M64.548,77.679V54.647c0.441-2.995,2.776-5.154,5.771-5.154H282.21
				c3.04,0,5.33,2.246,5.769,5.286l0.044,22.9H64.548z M204.469,134.047H91.734v14.091h112.735V134.047z M162.193,162.23H91.734
				v14.092h70.459V162.23z M260.839,134.047h-28.184v28.183h28.184V134.047z"/>
		</g>
	</g>
</g>
</svg>
