<?xml version="1.0" encoding="utf-8"?>
<!-- Generator: Adobe Illustrator 17.0.0, SVG Export Plug-In . SVG Version: 6.00 Build 0)  -->
<!DOCTYPE svg PUBLIC "-//W3C//DTD SVG 1.1//EN" "http://www.w3.org/Graphics/SVG/1.1/DTD/svg11.dtd">
<svg version="1.1" id="Layer_1" xmlns="http://www.w3.org/2000/svg" xmlns:xlink="http://www.w3.org/1999/xlink" x="0px" y="0px"
	 width="200px" height="200px" viewBox="0 0 200 200" enable-background="new 0 0 200 200" xml:space="preserve">
<g>
	<g>
		<g>
			<g>
				<path fill="#FF6633" d="M54.608,82.978v11.348h39.718V77.304H60.282C57.15,77.304,54.608,79.846,54.608,82.978z"/>
				<path fill="#FF6633" d="M134.044,63.119c0-4.698-3.512-8.511-11.348-8.511c-7.337,0-13.113,3.302-17.022,7.132
					c-1.714-1.016-3.688-1.634-5.839-1.634c-2.054,0-3.955,0.579-5.623,1.521c-3.904-3.784-9.646-7.019-16.909-7.019
					c-7.836,0-11.348,3.813-11.348,8.511s3.512,8.511,11.348,8.511H100l-0.006-0.045h0.017L100,71.63h22.696
					C130.532,71.63,134.044,67.817,134.044,63.119z M89.861,65.956H77.304c-2.587,0-5.674-0.494-5.674-2.837
					s3.087-2.837,5.674-2.837c5.64,0,9.918,2.525,12.8,5.231L89.861,65.956z M109.68,65.718c2.882-2.803,7.251-5.436,13.016-5.436
					c2.587,0,5.674,0.494,5.674,2.837s-3.087,2.837-5.674,2.837H109.81L109.68,65.718z"/>
				<path fill="#FF6633" d="M60.282,139.718c0,3.132,2.542,5.674,5.674,5.674h28.37V100H60.282V139.718z"/>
				<path fill="#FF6633" d="M139.718,77.304h-33.806v17.022h39.48V82.978C145.392,79.846,142.85,77.304,139.718,77.304z"/>
				<path fill="#FF6633" d="M105.912,145.392h28.132c3.132,0,5.674-2.542,5.674-5.674V100h-33.806V145.392z"/>
			</g>
		</g>
	</g>
</g>
<circle fill="none" stroke="#CCCCCC" stroke-width="2" stroke-miterlimit="10" cx="99.667" cy="99.667" r="82"/>
</svg>
