<?xml version="1.0" encoding="utf-8"?>
<!-- Generator: Adobe Illustrator 17.0.0, SVG Export Plug-In . SVG Version: 6.00 Build 0)  -->
<!DOCTYPE svg PUBLIC "-//W3C//DTD SVG 1.1//EN" "http://www.w3.org/Graphics/SVG/1.1/DTD/svg11.dtd">
<svg version="1.1" xmlns="http://www.w3.org/2000/svg" xmlns:xlink="http://www.w3.org/1999/xlink" x="0px" y="0px"
	 width="352.108px" height="254px" viewBox="0 0 352.108 254" enable-background="new 0 0 352.108 254" xml:space="preserve">
<g id="Layer_1">
	<g>
		<g>
			<path fill-rule="evenodd" clip-rule="evenodd" fill="#333333" d="M224.854,73.073h-41.829V45.187h-13.943v27.886h-41.828v55.771
				h-13.943V254.33h125.486V128.844h-13.943V73.073z M141.197,87.015h69.714v41.829h-69.714V87.015z M196.968,240.387H155.14
				v-13.943h41.829V240.387z M224.854,240.387h-13.943v-27.886h-69.714v27.886h-13.943v-97.6h97.6V240.387z M155.14,45.187h-41.829
				V59.13h41.829V45.187z M233.324,5.761l-8.36-4.947l-28.958,31.625l8.359,4.948L233.324,5.761z M155.14,114.901h41.829v-13.943
				H155.14V114.901z M183.026,0.367h-13.943v30.877h13.943V0.367z M156.102,32.439L127.144,0.814l-8.36,4.947l28.959,31.627
				L156.102,32.439z M210.911,184.615h-69.714v13.943h69.714V184.615z M210.911,156.73h-69.714v13.943h69.714V156.73z
				 M196.968,45.187V59.13h41.829V45.187H196.968z"/>
		</g>
	</g>
</g>
<g id="Layer_2">
</g>
</svg>
