<?xml version="1.0" encoding="utf-8"?>
<!-- Generator: Adobe Illustrator 17.0.0, SVG Export Plug-In . SVG Version: 6.00 Build 0)  -->
<!DOCTYPE svg PUBLIC "-//W3C//DTD SVG 1.1//EN" "http://www.w3.org/Graphics/SVG/1.1/DTD/svg11.dtd">
<svg version="1.1" id="Layer_1" xmlns="http://www.w3.org/2000/svg" xmlns:xlink="http://www.w3.org/1999/xlink" x="0px" y="0px"
	 width="352.108px" height="254px" viewBox="0 0 352.108 254" enable-background="new 0 0 352.108 254" xml:space="preserve">
<g id="Layer_1_1_">
	<g>
		<g>
			<path fill="#333333" d="M-182.146,8.573h-41.829v-27.886h-13.943V8.573h-41.828v55.771h-13.943V189.83h125.486V64.344h-13.943
				L-182.146,8.573L-182.146,8.573z M-265.803,22.515h69.714v41.829h-69.714V22.515L-265.803,22.515z M-210.032,175.887h-41.828
				v-13.943h41.829L-210.032,175.887L-210.032,175.887z M-182.146,175.887h-13.943v-27.886h-69.714v27.886h-13.943v-97.6h97.6
				L-182.146,175.887L-182.146,175.887z M-251.86-19.313h-41.829V-5.37h41.829V-19.313z M-173.676-58.739l-8.36-4.947
				l-28.958,31.625l8.359,4.948L-173.676-58.739z M-251.86,50.401h41.829V36.458h-41.829V50.401z M-223.974-64.133h-13.943v30.877
				h13.943V-64.133z M-250.898-32.061l-28.958-31.625l-8.36,4.947l28.959,31.627L-250.898-32.061z M-196.089,120.115h-69.714v13.943
				h69.714L-196.089,120.115L-196.089,120.115z M-196.089,92.23h-69.714v13.943h69.714L-196.089,92.23L-196.089,92.23z
				 M-210.032-19.313V-5.37h41.829v-13.943H-210.032z"/>
		</g>
	</g>
</g>
<g id="Layer_2">
</g>
<g>
	<g>
		<path fill="#333333" d="M247.111,179.635c-4.298-7.442-12.332-12.068-20.966-12.068c-4.218,0-8.382,1.115-12.034,3.223
			c-6.636,3.826-11.585,5.897-18.71,5.897c-1.712,0-3.543-0.127-5.433-0.377c-10.145-1.355-24.015-14.898-35.345-34.494
			c-11.162-19.335-16.352-39.139-12.608-48.179c4.255-10.341,9.96-14.255,16.976-18.296c11.537-6.642,15.519-21.439,8.87-32.993
			l-16.882-29.211C146.753,5.783,139.155,1.39,130.652,1.39c-4.302,0-8.586,1.159-12.384,3.354l-10.581,6.098
			c-14.294,8.256-18.698,22.979-21.326,37.641c-5.603,30.759,5.011,70.53,30.694,115.023c25.319,43.815,55.235,73.677,84.25,84.098
			c9.408,3.372,17.485,5.006,24.684,5.006c6.973,0,13.226-1.574,18.593-4.672l10.549-6.098c11.53-6.65,15.502-21.441,8.852-32.986
			L247.111,179.635z M247.867,229.252l-10.555,6.101c-7.09,4.098-16.988,3.622-31.097-1.435
			c-25.403-9.121-53.312-37.438-76.568-77.685c-23.938-41.463-33.96-77.825-28.978-105.168c2.791-15.56,6.795-23.31,14.284-27.63
			l10.581-6.101c1.599-0.923,3.372-1.41,5.124-1.41c3.281,0,6.098,1.621,7.732,4.469l16.886,29.215
			c2.649,4.6,1.061,10.494-3.539,13.139c-8.438,4.862-17.18,10.824-23.154,25.345c-5.69,13.742-0.665,36.543,13.459,60.995
			c13.909,24.076,31.112,39.64,46.017,41.631c2.529,0.334,5.001,0.506,7.344,0.506c11.413,0,19.088-3.873,25.97-7.842
			c1.446-0.833,3.099-1.279,4.771-1.279c3.455,0,6.668,1.843,8.379,4.8l16.871,29.208
			C254.044,220.706,252.463,226.601,247.867,229.252z"/>
	</g>
</g>
</svg>
