<?xml version="1.0" encoding="utf-8"?>
<!-- Generator: Adobe Illustrator 17.0.0, SVG Export Plug-In . SVG Version: 6.00 Build 0)  -->
<!DOCTYPE svg PUBLIC "-//W3C//DTD SVG 1.1//EN" "http://www.w3.org/Graphics/SVG/1.1/DTD/svg11.dtd">
<svg version="1.1" id="Layer_1" xmlns="http://www.w3.org/2000/svg" xmlns:xlink="http://www.w3.org/1999/xlink" x="0px" y="0px"
	 width="353.492px" height="254px" viewBox="0 0 353.492 254" enable-background="new 0 0 353.492 254" xml:space="preserve">
<g>
	<g>
		<path fill-rule="evenodd" clip-rule="evenodd" fill="#333333" d="M106.375,56.721h98.518v56.297c4.663,0,9.411,0,14.074,0V56.721
			c0-5.085,0-9.804,0-14.074c0-5.493,0-10.243,0-14.074c16.665,0,28.148,0,28.148,0v84.445c8.481,0,14.051,0,14.074,0V14.499
			h-56.296v28.148h-28.148h-28.148h-6.815h-7.259h-28.148V14.499H50.079v239.259h112.593c0,0,0-5.4,0-14.075H64.153V28.573
			c0,0,11.458,0,28.638,0c0,4.933-0.133,9.385-0.26,14.074H92.3v168.889h70.373c0-4.537,0-9.26,0-14.075h-56.297V56.721z
			 M190.821,98.944h-70.371v14.073h70.371V98.944z M148.597,28.573V14.499h14.074v14.074h14.074h14.073V14.499h-16.904
			c-3.651-8.41-10.467-14.073-18.279-14.073c-7.813,0-14.629,5.662-18.28,14.073h-16.905v14.074h14.074H148.597z M303.413,190.425
			c0-34.978-28.355-63.333-63.333-63.333s-63.333,28.355-63.333,63.333c0,34.887,28.21,63.18,63.063,63.326
			c-27.884-0.001-73.539,0.006-76.936,0.007h98.316c-0.018-0.005-8.673-0.006-20.839-0.007
			C275.203,253.605,303.413,225.312,303.413,190.425z M240.08,239.684c-27.205,0-49.259-22.054-49.259-49.259
			c0-27.205,22.054-49.259,49.259-49.259s49.259,22.054,49.259,49.259C289.339,217.63,267.285,239.684,240.08,239.684z
			 M120.449,169.314h42.223c0-4.815,0-9.537,0-14.074h-42.223V169.314z M120.449,141.166h45.063
			c1.96-4.945,4.781-9.813,8.006-14.074h-53.068V141.166z M247.117,183.388V155.24h-14.074v28.148h-28.148v14.074h28.148v28.148
			h14.074v-28.148h28.148v-14.074H247.117z"/>
	</g>
</g>
</svg>
