<?xml version="1.0" encoding="utf-8"?>
<!-- Generator: Adobe Illustrator 17.0.0, SVG Export Plug-In . SVG Version: 6.00 Build 0)  -->
<!DOCTYPE svg PUBLIC "-//W3C//DTD SVG 1.1//EN" "http://www.w3.org/Graphics/SVG/1.1/DTD/svg11.dtd">
<svg version="1.1" xmlns="http://www.w3.org/2000/svg" xmlns:xlink="http://www.w3.org/1999/xlink" x="0px" y="0px"
	 width="352.617px" height="254px" viewBox="0 0 352.617 254" enable-background="new 0 0 352.617 254" xml:space="preserve">
<g id="Layer_1">
	<g>
		<path fill="#333333" d="M304.283,174.486c2.397-4.279,3.653-8.882,3.653-13.529c0-21.064-24.557-37.565-55.907-37.565
			c-31.35,0-55.908,16.5-55.908,37.565c0,4.647,1.256,9.25,3.653,13.529c-2.397,4.278-3.653,8.883-3.653,13.53
			c0,4.832,1.359,9.606,3.952,14.03c-2.593,4.424-3.952,9.198-3.952,14.03c0,21.064,24.557,37.564,55.908,37.564
			c31.35,0,55.907-16.5,55.907-37.564c0-4.832-1.359-9.606-3.952-14.03c2.593-4.424,3.952-9.199,3.952-14.03
			C307.936,183.368,306.68,178.764,304.283,174.486z M252.029,240.612c-23.243,0-42.88-11.236-42.88-24.535
			c0-1.151,0.15-2.295,0.448-3.429c0.678,0.527,1.379,1.039,2.097,1.538c0.15,0.104,0.309,0.201,0.461,0.304
			c0.648,0.439,1.308,0.868,1.986,1.284c0.283,0.173,0.572,0.34,0.86,0.509c0.577,0.339,1.163,0.671,1.76,0.994
			c0.31,0.168,0.622,0.334,0.937,0.498c0.638,0.33,1.289,0.648,1.948,0.959c0.271,0.128,0.536,0.26,0.811,0.385
			c0.932,0.423,1.881,0.831,2.85,1.215c0.135,0.054,0.276,0.101,0.412,0.154c0.842,0.328,1.697,0.641,2.564,0.939
			c0.33,0.114,0.666,0.22,1,0.329c0.698,0.228,1.402,0.448,2.115,0.657c0.366,0.107,0.732,0.213,1.102,0.315
			c0.74,0.204,1.488,0.395,2.242,0.578c0.326,0.079,0.648,0.163,0.976,0.238c1.076,0.247,2.163,0.476,3.265,0.679
			c0.087,0.016,0.176,0.028,0.264,0.044c1.017,0.184,2.045,0.347,3.082,0.493c0.361,0.051,0.724,0.093,1.087,0.139
			c0.783,0.1,1.568,0.19,2.36,0.268c0.404,0.04,0.809,0.077,1.215,0.111c0.803,0.067,1.611,0.12,2.422,0.164
			c0.364,0.02,0.726,0.044,1.092,0.06c1.168,0.048,2.341,0.079,3.522,0.079c1.181,0,2.354-0.031,3.522-0.079
			c0.366-0.015,0.728-0.04,1.092-0.06c0.811-0.044,1.619-0.097,2.422-0.164c0.406-0.034,0.811-0.071,1.215-0.111
			c0.792-0.078,1.578-0.168,2.361-0.268c0.362-0.046,0.726-0.088,1.086-0.139c1.037-0.146,2.066-0.31,3.084-0.494
			c0.087-0.016,0.175-0.027,0.261-0.043c1.102-0.203,2.19-0.433,3.267-0.68c0.326-0.075,0.646-0.158,0.969-0.237
			c0.756-0.184,1.506-0.375,2.248-0.58c0.368-0.102,0.733-0.207,1.098-0.313c0.714-0.209,1.42-0.429,2.12-0.658
			c0.333-0.109,0.668-0.215,0.998-0.328c0.871-0.299,1.729-0.614,2.574-0.943c0.133-0.052,0.27-0.098,0.402-0.15
			c0.971-0.385,1.92-0.793,2.854-1.217c0.272-0.123,0.534-0.255,0.803-0.381c0.662-0.312,1.317-0.632,1.958-0.963
			c0.313-0.162,0.621-0.327,0.929-0.493c0.601-0.325,1.19-0.658,1.771-1c0.284-0.167,0.571-0.332,0.85-0.504
			c0.684-0.42,1.351-0.852,2.005-1.296c0.146-0.099,0.299-0.193,0.444-0.293c0.72-0.499,1.421-1.012,2.1-1.539
			c0.298,1.134,0.448,2.278,0.448,3.429C294.908,229.375,275.272,240.612,252.029,240.612z M291.02,197.953
			c-7.161,8.868-22.466,14.598-38.991,14.598c-16.526,0-31.831-5.73-38.991-14.598c-2.58-3.194-3.888-6.539-3.888-9.938
			c0-0.858,0.083-1.714,0.248-2.563c0.473,0.373,0.968,0.73,1.462,1.089c0.15,0.109,0.293,0.224,0.446,0.332
			c0.789,0.56,1.604,1.1,2.441,1.624c0.225,0.141,0.46,0.274,0.688,0.412c0.627,0.379,1.264,0.751,1.915,1.11
			c0.307,0.169,0.617,0.334,0.929,0.498c0.616,0.325,1.242,0.64,1.878,0.946c0.31,0.15,0.618,0.301,0.932,0.446
			c0.783,0.362,1.581,0.708,2.392,1.042c0.165,0.068,0.324,0.142,0.49,0.209c0.974,0.392,1.968,0.761,2.978,1.113
			c0.299,0.104,0.605,0.199,0.907,0.3c0.732,0.244,1.471,0.48,2.22,0.702c0.369,0.11,0.741,0.215,1.114,0.32
			c0.729,0.204,1.466,0.396,2.21,0.58c0.354,0.087,0.706,0.178,1.063,0.261c0.979,0.227,1.968,0.436,2.968,0.627
			c0.115,0.022,0.227,0.049,0.342,0.07c1.113,0.207,2.241,0.387,3.378,0.549c0.346,0.049,0.696,0.089,1.044,0.134
			c0.813,0.105,1.629,0.201,2.452,0.282c0.405,0.04,0.811,0.077,1.218,0.111c0.819,0.069,1.642,0.124,2.47,0.169
			c0.371,0.02,0.739,0.045,1.111,0.06c1.187,0.049,2.38,0.082,3.582,0.082s2.395-0.032,3.582-0.081
			c0.372-0.016,0.741-0.04,1.112-0.061c0.827-0.045,1.651-0.1,2.469-0.169c0.408-0.034,0.814-0.071,1.219-0.111
			c0.823-0.081,1.639-0.177,2.451-0.282c0.349-0.045,0.699-0.085,1.046-0.134c1.137-0.162,2.264-0.341,3.377-0.548
			c0.116-0.022,0.229-0.049,0.345-0.071c0.999-0.191,1.986-0.4,2.964-0.626c0.359-0.083,0.712-0.174,1.068-0.262
			c0.741-0.183,1.476-0.375,2.203-0.578c0.375-0.105,0.748-0.211,1.12-0.321c0.746-0.222,1.482-0.456,2.211-0.699
			c0.305-0.102,0.615-0.198,0.917-0.303c1.007-0.351,2-0.719,2.972-1.111c0.173-0.07,0.339-0.147,0.51-0.217
			c0.802-0.331,1.593-0.674,2.369-1.032c0.32-0.148,0.633-0.302,0.949-0.454c0.629-0.304,1.249-0.615,1.858-0.936
			c0.318-0.167,0.634-0.335,0.946-0.507c0.642-0.354,1.269-0.72,1.887-1.094c0.237-0.143,0.481-0.281,0.715-0.428
			c0.833-0.521,1.644-1.058,2.429-1.615c0.165-0.117,0.32-0.241,0.482-0.359c0.483-0.351,0.968-0.701,1.431-1.066
			c0.165,0.849,0.248,1.705,0.248,2.563C294.908,191.415,293.6,194.759,291.02,197.953z M291.339,170.508
			c-7.022,9.103-22.452,14.984-39.31,14.984c-2.107,0-4.192-0.092-6.241-0.271c-10.245-0.893-19.591-3.954-26.335-8.532
			c-2.697-1.831-4.978-3.906-6.734-6.182c-2.369-3.071-3.57-6.285-3.57-9.551c0-13.3,19.637-24.536,42.88-24.536
			c23.243,0,42.879,11.236,42.879,24.536C294.908,164.223,293.707,167.437,291.339,170.508z"/>
		<path fill="#333333" d="M101.148,36.052c-31.664,0-56.467,16.665-56.467,37.94c0,4.693,1.269,9.344,3.69,13.665
			c-2.422,4.321-3.69,8.971-3.69,13.665c0,4.88,1.372,9.702,3.991,14.171c-2.619,4.469-3.991,9.291-3.991,14.171
			c0,4.88,1.372,9.702,3.991,14.171c-2.619,4.468-3.991,9.29-3.991,14.171c0,4.693,1.268,9.343,3.69,13.664
			c-2.421,4.321-3.69,8.972-3.69,13.665c0,5.272,1.579,10.439,4.6,15.182c-3.021,4.743-4.6,9.91-4.6,15.183
			c0,21.275,24.803,37.94,56.467,37.94c31.664,0,56.467-16.665,56.467-37.94c0-5.273-1.579-10.44-4.599-15.183
			c3.02-4.743,4.599-9.911,4.599-15.183c0-4.694-1.268-9.344-3.69-13.665c2.421-4.322,3.69-8.971,3.69-13.664
			c0-4.88-1.373-9.702-3.992-14.171c2.619-4.469,3.992-9.291,3.992-14.171c0-4.88-1.372-9.703-3.991-14.171
			c2.619-4.469,3.991-9.291,3.991-14.171c0-4.693-1.268-9.343-3.69-13.665c2.421-4.322,3.69-8.971,3.69-13.665
			C157.615,52.718,132.812,36.052,101.148,36.052z M101.148,240.481c-23.476,0-43.309-11.349-43.309-24.781
			c0-1.71,0.324-3.4,0.967-5.063c0.05,0.038,0.103,0.073,0.153,0.11c0.21,0.158,0.43,0.308,0.644,0.464
			c0.546,0.398,1.1,0.79,1.669,1.171c0.284,0.19,0.575,0.374,0.864,0.559c0.529,0.338,1.066,0.669,1.613,0.992
			c0.303,0.179,0.607,0.358,0.916,0.532c0.589,0.333,1.19,0.654,1.798,0.969c0.271,0.141,0.536,0.286,0.811,0.422
			c0.885,0.442,1.785,0.869,2.706,1.273c0.068,0.03,0.14,0.056,0.208,0.086c0.858,0.373,1.732,0.728,2.619,1.069
			c0.31,0.119,0.627,0.23,0.94,0.345c0.664,0.243,1.333,0.48,2.012,0.706c0.359,0.119,0.719,0.234,1.082,0.348
			c0.67,0.21,1.348,0.411,2.031,0.603c0.353,0.099,0.704,0.201,1.06,0.296c0.799,0.212,1.609,0.409,2.425,0.598
			c0.24,0.055,0.476,0.118,0.718,0.171c1.058,0.233,2.129,0.445,3.212,0.637c0.269,0.048,0.544,0.086,0.814,0.131
			c0.822,0.137,1.649,0.265,2.484,0.378c0.386,0.052,0.776,0.097,1.165,0.144c0.742,0.09,1.488,0.171,2.238,0.241
			c0.408,0.038,0.816,0.075,1.226,0.108c0.784,0.062,1.572,0.111,2.364,0.152c0.364,0.019,0.726,0.043,1.092,0.057
			c1.151,0.045,2.309,0.074,3.475,0.074s2.324-0.029,3.475-0.074c0.366-0.014,0.728-0.038,1.092-0.057
			c0.792-0.041,1.581-0.089,2.364-0.151c0.41-0.033,0.818-0.07,1.226-0.108c0.751-0.07,1.496-0.151,2.238-0.241
			c0.389-0.047,0.779-0.092,1.165-0.144c0.835-0.113,1.661-0.241,2.483-0.378c0.271-0.045,0.546-0.083,0.816-0.131
			c1.083-0.192,2.154-0.404,3.212-0.637c0.242-0.053,0.478-0.116,0.718-0.171c0.816-0.188,1.625-0.385,2.425-0.598
			c0.356-0.095,0.707-0.196,1.06-0.296c0.684-0.193,1.361-0.393,2.031-0.603c0.363-0.114,0.724-0.229,1.082-0.348
			c0.679-0.225,1.348-0.462,2.012-0.706c0.314-0.115,0.63-0.226,0.94-0.345c0.889-0.341,1.764-0.697,2.622-1.07
			c0.067-0.029,0.137-0.055,0.204-0.084c0.922-0.405,1.823-0.832,2.708-1.274c0.273-0.136,0.537-0.28,0.806-0.42
			c0.61-0.316,1.213-0.638,1.803-0.972c0.307-0.174,0.609-0.351,0.911-0.53c0.549-0.324,1.087-0.656,1.617-0.995
			c0.289-0.185,0.578-0.368,0.861-0.557c0.572-0.382,1.128-0.776,1.676-1.176c0.211-0.154,0.429-0.302,0.636-0.458
			c0.051-0.038,0.105-0.073,0.155-0.112c0.643,1.663,0.967,3.353,0.967,5.063C144.456,229.133,124.624,240.481,101.148,240.481z
			 M139.867,196.165c-7.591,8.605-22.427,13.95-38.718,13.95c-16.292,0-31.128-5.346-38.718-13.95
			c-3.046-3.454-4.59-7.097-4.59-10.831c0-0.867,0.084-1.731,0.251-2.589c0.477,0.376,0.976,0.736,1.474,1.098
			c0.153,0.111,0.298,0.228,0.453,0.338c0.796,0.565,1.62,1.11,2.464,1.639c0.229,0.143,0.467,0.278,0.699,0.418
			c0.632,0.382,1.274,0.757,1.93,1.119c0.31,0.171,0.625,0.338,0.941,0.504c0.622,0.328,1.254,0.646,1.896,0.955
			c0.313,0.151,0.623,0.304,0.941,0.45c0.791,0.365,1.597,0.715,2.415,1.053c0.167,0.069,0.329,0.144,0.497,0.212
			c0.983,0.396,1.987,0.768,3.006,1.124c0.303,0.106,0.613,0.202,0.919,0.304c0.738,0.246,1.483,0.484,2.238,0.708
			c0.375,0.111,0.751,0.218,1.13,0.324c0.735,0.206,1.477,0.399,2.226,0.584c0.36,0.089,0.717,0.181,1.079,0.265
			c0.985,0.228,1.98,0.439,2.987,0.631c0.119,0.023,0.235,0.05,0.354,0.073c1.124,0.209,2.263,0.391,3.412,0.554
			c0.348,0.049,0.701,0.09,1.051,0.135c0.822,0.106,1.648,0.203,2.481,0.285c0.408,0.04,0.817,0.077,1.227,0.112
			c0.829,0.07,1.662,0.126,2.5,0.171c0.373,0.02,0.743,0.045,1.118,0.061c1.2,0.05,2.405,0.082,3.619,0.082s2.42-0.032,3.619-0.082
			c0.374-0.016,0.745-0.04,1.118-0.061c0.838-0.046,1.671-0.102,2.5-0.171c0.411-0.035,0.82-0.072,1.228-0.112
			c0.832-0.082,1.658-0.179,2.48-0.285c0.351-0.045,0.703-0.085,1.051-0.135c1.148-0.163,2.287-0.345,3.411-0.554
			c0.12-0.022,0.237-0.05,0.357-0.073c1.005-0.192,2-0.403,2.983-0.631c0.364-0.084,0.722-0.177,1.083-0.266
			c0.747-0.185,1.487-0.378,2.22-0.583c0.38-0.106,0.759-0.214,1.136-0.326c0.752-0.223,1.493-0.46,2.228-0.705
			c0.31-0.103,0.623-0.201,0.93-0.308c1.017-0.355,2.019-0.726,3.001-1.121c0.175-0.071,0.343-0.149,0.518-0.221
			c0.81-0.334,1.608-0.681,2.391-1.042c0.323-0.149,0.639-0.305,0.957-0.458c0.635-0.307,1.261-0.621,1.877-0.945
			c0.321-0.169,0.641-0.339,0.957-0.513c0.648-0.357,1.28-0.726,1.904-1.103c0.241-0.145,0.488-0.285,0.725-0.434
			c0.841-0.526,1.66-1.069,2.452-1.631c0.167-0.118,0.323-0.243,0.487-0.363c0.488-0.355,0.978-0.708,1.445-1.077
			c0.167,0.858,0.251,1.722,0.251,2.589C144.456,189.068,142.912,192.712,139.867,196.165z M140.852,167.652
			c-7.092,9.194-22.677,15.135-39.703,15.135c-5.321,0-10.501-0.58-15.325-1.658c-10.613-2.372-19.502-7.155-24.378-13.476
			c-2.393-3.102-3.606-6.348-3.606-9.646c0-1.162,0.151-2.318,0.453-3.464c0.685,0.532,1.393,1.049,2.119,1.553
			c0.151,0.105,0.312,0.203,0.465,0.307c0.654,0.443,1.321,0.876,2.006,1.296c0.286,0.175,0.579,0.344,0.87,0.516
			c0.582,0.342,1.174,0.677,1.776,1.003c0.314,0.17,0.628,0.338,0.948,0.503c0.645,0.333,1.302,0.654,1.967,0.968
			c0.274,0.129,0.542,0.263,0.819,0.389c0.942,0.428,1.9,0.839,2.879,1.228c0.136,0.054,0.278,0.102,0.414,0.155
			c0.851,0.331,1.714,0.648,2.59,0.949c0.335,0.115,0.675,0.222,1.013,0.333c0.705,0.23,1.415,0.452,2.135,0.663
			c0.37,0.108,0.74,0.215,1.113,0.318c0.748,0.206,1.504,0.399,2.265,0.584c0.328,0.08,0.653,0.164,0.983,0.24
			c1.087,0.249,2.185,0.481,3.298,0.686c0.088,0.016,0.179,0.028,0.267,0.044c1.027,0.186,2.065,0.351,3.111,0.498
			c0.364,0.051,0.732,0.094,1.098,0.141c0.792,0.101,1.587,0.192,2.388,0.271c0.406,0.04,0.813,0.077,1.222,0.111
			c0.813,0.068,1.63,0.122,2.451,0.166c0.367,0.02,0.733,0.045,1.101,0.06c1.18,0.049,2.365,0.08,3.557,0.08
			c1.193,0,2.378-0.031,3.557-0.08c0.369-0.015,0.734-0.04,1.101-0.06c0.821-0.045,1.638-0.098,2.451-0.166
			c0.408-0.034,0.815-0.071,1.221-0.111c0.801-0.079,1.597-0.17,2.389-0.271c0.366-0.047,0.733-0.089,1.097-0.14
			c1.051-0.148,2.094-0.314,3.125-0.5c0.083-0.015,0.168-0.026,0.251-0.042c1.114-0.205,2.214-0.438,3.302-0.687
			c0.328-0.075,0.649-0.159,0.975-0.238c0.765-0.186,1.524-0.38,2.275-0.587c0.371-0.102,0.739-0.208,1.106-0.316
			c0.723-0.212,1.437-0.434,2.145-0.666c0.335-0.109,0.672-0.216,1.003-0.33c0.882-0.303,1.751-0.621,2.606-0.955
			c0.132-0.051,0.268-0.097,0.4-0.149c0.981-0.389,1.94-0.801,2.883-1.229c0.275-0.125,0.542-0.258,0.814-0.386
			c0.667-0.315,1.327-0.637,1.973-0.971c0.318-0.164,0.63-0.332,0.943-0.5c0.606-0.327,1.2-0.664,1.785-1.008
			c0.288-0.169,0.578-0.337,0.861-0.51c0.691-0.424,1.364-0.861,2.024-1.308c0.147-0.1,0.302-0.194,0.448-0.296
			c0.727-0.504,1.436-1.022,2.121-1.555c0.301,1.146,0.453,2.301,0.453,3.464C144.456,161.304,143.244,164.55,140.852,167.652z
			 M140.53,139.701c-7.233,8.957-22.691,14.744-39.382,14.744c-16.691,0-32.15-5.787-39.382-14.744
			c-2.606-3.226-3.927-6.604-3.927-10.037c0-1.167,0.152-2.326,0.456-3.476c1.934,1.505,4.047,2.888,6.296,4.159
			c0.154,0.087,0.307,0.175,0.462,0.261c0.651,0.36,1.313,0.71,1.988,1.049c0.216,0.109,0.436,0.215,0.654,0.322
			c0.654,0.319,1.311,0.635,1.984,0.935c0.258,0.115,0.523,0.222,0.784,0.334c1.049,0.451,2.119,0.877,3.211,1.28
			c0.506,0.187,1.007,0.381,1.522,0.557c0.471,0.161,0.954,0.307,1.432,0.46c0.431,0.138,0.855,0.285,1.291,0.415
			c0.142,0.042,0.287,0.078,0.429,0.119c0.458,0.134,0.922,0.259,1.386,0.385c0.628,0.171,1.26,0.334,1.894,0.489
			c0.421,0.103,0.842,0.205,1.267,0.301c0.838,0.19,1.682,0.364,2.531,0.527c0.232,0.044,0.459,0.095,0.692,0.137
			c1.141,0.209,2.291,0.392,3.448,0.552c0.157,0.022,0.317,0.038,0.475,0.059c0.992,0.131,1.99,0.244,2.993,0.34
			c0.308,0.029,0.616,0.055,0.925,0.081c0.89,0.075,1.784,0.135,2.682,0.182c0.317,0.017,0.633,0.036,0.951,0.05
			c1.179,0.048,2.362,0.08,3.553,0.08c1.191,0,2.374-0.032,3.553-0.08c0.318-0.013,0.633-0.033,0.95-0.049
			c0.899-0.047,1.794-0.107,2.684-0.182c0.308-0.026,0.616-0.052,0.922-0.081c1.005-0.096,2.005-0.209,2.999-0.34
			c0.156-0.021,0.313-0.037,0.469-0.058c1.159-0.16,2.31-0.344,3.452-0.553c0.229-0.042,0.452-0.092,0.68-0.135
			c0.852-0.164,1.7-0.338,2.542-0.529c0.424-0.096,0.842-0.198,1.262-0.3c0.637-0.156,1.27-0.319,1.9-0.49
			c0.463-0.126,0.926-0.251,1.383-0.384c0.142-0.042,0.287-0.077,0.43-0.119c0.441-0.132,0.869-0.28,1.304-0.419
			c0.472-0.151,0.948-0.295,1.413-0.454c0.581-0.2,1.148-0.416,1.718-0.629c1.001-0.373,1.982-0.766,2.946-1.178
			c0.291-0.125,0.588-0.245,0.875-0.373c0.656-0.292,1.296-0.6,1.934-0.911c0.238-0.116,0.476-0.231,0.711-0.35
			c0.661-0.333,1.311-0.676,1.95-1.029c0.169-0.094,0.336-0.189,0.504-0.284c2.24-1.267,4.345-2.646,6.272-4.145
			c0.304,1.15,0.456,2.31,0.456,3.476C144.456,133.097,143.135,136.474,140.53,139.701z M140.53,111.359
			c-0.402,0.497-0.838,0.981-1.289,1.459c-0.092,0.097-0.18,0.195-0.274,0.291c-0.414,0.425-0.852,0.84-1.304,1.248
			c-0.166,0.15-0.336,0.298-0.508,0.446c-0.406,0.35-0.824,0.695-1.257,1.032c-0.257,0.199-0.523,0.394-0.789,0.589
			c-0.275,0.201-0.556,0.4-0.84,0.596c-0.455,0.313-0.923,0.62-1.404,0.92c-0.249,0.156-0.499,0.312-0.754,0.465
			c-0.35,0.208-0.704,0.415-1.066,0.616c-0.264,0.147-0.535,0.288-0.804,0.431c-0.545,0.289-1.101,0.572-1.671,0.845
			c-0.286,0.137-0.576,0.271-0.867,0.404c-0.51,0.233-1.028,0.458-1.555,0.678c-0.398,0.166-0.799,0.329-1.206,0.487
			c-0.317,0.123-0.635,0.245-0.958,0.363c-0.636,0.233-1.281,0.458-1.937,0.671c-0.245,0.08-0.495,0.156-0.744,0.233
			c-0.518,0.161-1.043,0.313-1.572,0.462c-0.342,0.097-0.683,0.194-1.028,0.286c-0.762,0.2-1.532,0.391-2.313,0.565
			c-0.067,0.015-0.133,0.033-0.201,0.048c-1.866,0.411-3.783,0.746-5.738,1.002c-0.09,0.012-0.181,0.022-0.272,0.033
			c-0.847,0.108-1.701,0.199-2.561,0.277c-0.185,0.016-0.369,0.033-0.554,0.048c-0.779,0.064-1.564,0.113-2.352,0.152
			c-0.217,0.011-0.432,0.025-0.649,0.034c-0.968,0.039-1.94,0.063-2.917,0.063s-1.95-0.024-2.917-0.063
			c-0.217-0.009-0.433-0.023-0.65-0.034c-0.787-0.039-1.572-0.088-2.351-0.152c-0.186-0.015-0.37-0.032-0.555-0.048
			c-0.859-0.078-1.713-0.169-2.559-0.277c-0.091-0.012-0.183-0.022-0.274-0.034c-1.954-0.257-3.871-0.592-5.736-1.002
			c-0.07-0.015-0.138-0.034-0.207-0.049c-0.779-0.174-1.547-0.364-2.307-0.564c-0.344-0.091-0.685-0.189-1.027-0.285
			c-0.529-0.149-1.054-0.301-1.572-0.462c-0.249-0.078-0.499-0.154-0.745-0.234c-0.654-0.213-1.297-0.437-1.932-0.669
			c-0.325-0.119-0.646-0.242-0.965-0.366c-0.402-0.156-0.798-0.317-1.191-0.481c-0.534-0.223-1.06-0.451-1.577-0.687
			c-0.285-0.13-0.569-0.261-0.849-0.396c-0.595-0.285-1.175-0.581-1.743-0.884c-0.245-0.131-0.493-0.259-0.733-0.393
			c-0.366-0.204-0.724-0.412-1.077-0.623c-0.247-0.147-0.488-0.298-0.729-0.449c-0.49-0.306-0.967-0.618-1.43-0.938
			c-0.28-0.193-0.556-0.388-0.826-0.586c-0.272-0.199-0.544-0.398-0.806-0.601c-0.428-0.334-0.843-0.674-1.245-1.021
			c-0.173-0.149-0.344-0.299-0.512-0.45c-0.451-0.408-0.888-0.822-1.302-1.246c-0.094-0.096-0.183-0.195-0.275-0.292
			c-0.451-0.477-0.887-0.961-1.289-1.458c-2.606-3.227-3.927-6.604-3.927-10.037c0-0.867,0.084-1.73,0.251-2.588
			c0.477,0.376,0.976,0.736,1.474,1.098c0.153,0.111,0.298,0.227,0.452,0.337c0.797,0.565,1.621,1.111,2.466,1.64
			c0.226,0.141,0.462,0.275,0.691,0.413c0.635,0.384,1.279,0.76,1.938,1.123c0.309,0.17,0.623,0.336,0.937,0.502
			c0.624,0.329,1.258,0.648,1.901,0.958c0.311,0.15,0.62,0.302,0.935,0.448c0.795,0.367,1.606,0.719,2.429,1.059
			c0.163,0.067,0.32,0.14,0.483,0.206c0.984,0.396,1.99,0.77,3.011,1.125c0.3,0.105,0.607,0.2,0.911,0.301
			c0.742,0.247,1.49,0.486,2.249,0.711c0.371,0.11,0.745,0.217,1.121,0.322c0.738,0.207,1.484,0.401,2.236,0.587
			c0.357,0.088,0.711,0.179,1.071,0.263c0.989,0.229,1.989,0.441,3,0.634c0.115,0.022,0.227,0.049,0.343,0.07
			c1.125,0.209,2.266,0.391,3.415,0.555c0.346,0.049,0.697,0.089,1.045,0.134c0.823,0.106,1.651,0.203,2.485,0.286
			c0.408,0.04,0.817,0.077,1.227,0.112c0.829,0.07,1.662,0.126,2.5,0.171c0.373,0.02,0.743,0.045,1.117,0.061
			c1.2,0.05,2.405,0.082,3.62,0.082s2.42-0.032,3.62-0.082c0.374-0.016,0.745-0.04,1.118-0.061c0.838-0.046,1.672-0.102,2.501-0.172
			c0.409-0.034,0.817-0.071,1.224-0.112c0.836-0.083,1.665-0.18,2.49-0.286c0.347-0.045,0.695-0.084,1.04-0.133
			c1.15-0.164,2.291-0.345,3.417-0.555c0.113-0.021,0.224-0.048,0.337-0.069c1.014-0.193,2.016-0.406,3.007-0.636
			c0.357-0.083,0.709-0.173,1.063-0.261c0.755-0.186,1.504-0.382,2.245-0.589c0.373-0.104,0.744-0.21,1.114-0.32
			c0.762-0.226,1.514-0.466,2.259-0.714c0.3-0.1,0.605-0.195,0.902-0.299c1.022-0.356,2.028-0.729,3.014-1.126
			c0.162-0.065,0.316-0.137,0.477-0.203c0.825-0.34,1.637-0.693,2.435-1.061c0.315-0.145,0.622-0.297,0.933-0.447
			c0.644-0.311,1.279-0.63,1.903-0.959c0.315-0.166,0.628-0.332,0.938-0.503c0.657-0.362,1.298-0.736,1.931-1.119
			c0.232-0.141,0.471-0.276,0.7-0.419c0.844-0.528,1.666-1.073,2.461-1.637c0.161-0.114,0.311-0.235,0.47-0.35
			c0.492-0.358,0.986-0.715,1.459-1.087c0.167,0.858,0.251,1.721,0.251,2.588C144.456,104.755,143.135,108.132,140.53,111.359z
			 M140.851,83.639c-7.092,9.194-22.676,15.135-39.703,15.135c-5.321,0-10.501-0.58-15.325-1.658
			c-7.718-1.725-14.525-4.726-19.54-8.666c-1.227-0.964-2.344-1.987-3.343-3.059c-0.021-0.023-0.046-0.044-0.067-0.067
			c-0.508-0.549-0.984-1.11-1.427-1.685l-0.002-0.003c-2.392-3.101-3.604-6.345-3.604-9.644c0-13.433,19.833-24.781,43.309-24.781
			s43.308,11.349,43.308,24.781C144.456,77.292,143.244,80.537,140.851,83.639z"/>
		<path fill="#333333" d="M218.297,11.136c2.132,0.02,4.267,0.094,6.395,0.225c2.952,0.18,5.874,0.592,8.719,1.455
			c2.326,0.706,4.509,1.714,6.439,3.237c2.034,1.607,3.554,3.622,4.627,5.994c0.036,0.079,0.061,0.163,0.114,0.306
			c-0.181,0-0.326,0-0.471,0c-9.922,0-19.844,0-29.765,0c-0.681,0-1.362,0.006-2.045-0.003c-0.201-0.005-0.318,0.067-0.429,0.236
			c-2.222,3.411-4.452,6.817-6.677,10.225c-0.041,0.06-0.073,0.129-0.138,0.242c13.635,0,27.22,0,40.851,0
			c0,0.186,0.004,0.336-0.001,0.485c-0.075,2.53-0.736,4.909-1.883,7.148c-1.546,3.015-3.789,5.388-6.577,7.241
			c-2.442,1.627-5.111,2.712-7.926,3.456c-1.872,0.492-3.773,0.802-5.696,1.011c-2.302,0.25-4.61,0.243-6.921,0.237
			c-2.563-0.003-5.125-0.003-7.686-0.006c-0.112,0-0.222,0.01-0.375,0.016c0,0.157,0,0.296,0,0.434
			c0.002,3.065,0.008,6.132,0.002,9.201c-0.001,0.258,0.074,0.455,0.233,0.659c6.787,8.624,13.569,17.257,20.353,25.885
			c6.453,8.207,12.907,16.416,19.356,24.628c0.089,0.11,0.144,0.253,0.216,0.383c5.983,0,11.967,0,17.951,0
			c-0.076-0.116-0.144-0.242-0.23-0.349c-13.696-17.418-27.395-34.834-41.092-52.256c-0.078-0.098-0.147-0.2-0.253-0.343
			c0.137-0.014,0.23-0.028,0.324-0.036c4.877-0.317,9.62-1.291,14.19-3.073c4.23-1.654,8.113-3.904,11.513-6.969
			c3.735-3.372,6.512-7.408,8.162-12.215c0.584-1.7,0.999-3.443,1.254-5.224c0.013-0.088,0.036-0.172,0.063-0.306
			c0.15,0,0.298,0,0.445,0c3.976,0,7.953-0.002,11.929,0.008c0.301,0,0.471-0.092,0.635-0.349c2.156-3.319,4.324-6.628,6.488-9.94
			c0.073-0.116,0.146-0.232,0.266-0.421c-0.902-0.008-1.726-0.005-2.55-0.005c-0.821,0-1.642,0-2.461,0c-0.835,0-1.668,0-2.501,0
			c-0.833,0-1.666,0-2.499,0c-0.821,0-1.641,0-2.462,0c-0.833,0-1.666,0-2.499,0c-0.82,0-1.641,0-2.461,0c-0.832,0-1.663,0-2.522,0
			c-0.852-4.169-2.476-7.944-5.294-11.217c6.138,0,12.2,0,18.252,0c0.092-0.133,0.165-0.24,0.234-0.347
			c2.173-3.322,4.345-6.645,6.514-9.969c0.081-0.123,0.126-0.268,0.188-0.405c-22.85,0-45.7,0-68.551,0
			c-2.165,3.311-4.332,6.621-6.497,9.934c-0.153,0.231-0.304,0.467-0.495,0.761c0.197,0.005,0.339,0.013,0.482,0.013
			C209.789,11.126,214.044,11.102,218.297,11.136z"/>
	</g>
</g>
<g id="Layer_2">
</g>
</svg>
