<?xml version="1.0" encoding="iso-8859-1"?>
<!-- Generator: Adobe Illustrator 16.0.0, SVG Export Plug-In . SVG Version: 6.00 Build 0)  -->
<!DOCTYPE svg PUBLIC "-//W3C//DTD SVG 1.1//EN" "http://www.w3.org/Graphics/SVG/1.1/DTD/svg11.dtd">
<svg xmlns="http://www.w3.org/2000/svg" xmlns:xlink="http://www.w3.org/1999/xlink" version="1.1" id="Capa_1" x="0px" y="0px" width="512px" height="512px" viewBox="0 0 234.287 234.288" style="enable-background:new 0 0 234.287 234.288;" xml:space="preserve">
<g>
	<g id="_x31_42_9_">
		<g>
			<rect x="103.174" y="139.593" width="24.826" height="23.628" fill="#6f7478"/>
			<path d="M142.198,84.29c-2.463-2.43-5.688-4.421-9.658-5.959C128.549,76.769,123.671,76,117.865,76     c-5.898,0-10.885,0.894-14.982,2.694c-4.096,1.785-7.459,4.113-10.078,6.967c-2.62,2.871-4.575,6.116-5.845,9.729     c-1.277,3.625-2.031,7.302-2.272,11.039h24.946c-0.246-2.625,0.234-4.971,1.424-7.041c1.191-2.064,3.22-3.097,6.089-3.097     c4.613,0,6.916,2.026,6.916,6.083c0,1.356-0.391,2.506-1.191,3.458c-0.79,0.96-1.772,1.777-2.927,2.448     c-1.15,0.675-2.366,1.29-3.641,1.846c-1.272,0.561-2.381,1.076-3.344,1.556c-2.308,1.272-4.044,2.869-5.246,4.773     c-1.191,1.907-2.034,3.856-2.501,5.843c-0.485,2-0.724,3.94-0.724,5.84c0,1.838,0.048,3.351,0.125,4.539h22.066     c0-1.346,0.112-2.539,0.305-3.574c0.193-1.031,0.549-1.961,1.016-2.737c0.478-0.798,1.153-1.554,2.031-2.271     c0.869-0.73,1.986-1.437,3.331-2.152c1.991-1.031,3.951-2.052,5.86-3.045c1.909-0.992,3.631-2.249,5.189-3.763     c1.555-1.508,2.804-3.397,3.758-5.674c0.96-2.267,1.432-5.22,1.432-8.881c-0.162-2.636-0.822-5.388-1.975-8.305     C146.484,89.375,144.666,86.711,142.198,84.29z" fill="#6f7478"/>
			<path d="M173.834,0H26.928v234.288h180.431V32.504L173.834,0z M191.76,218.683H42.528V15.6h123.268v24.75h25.958v178.333H191.76z     " fill="#6f7478"/>
		</g>
	</g>
</g>
<g>
</g>
<g>
</g>
<g>
</g>
<g>
</g>
<g>
</g>
<g>
</g>
<g>
</g>
<g>
</g>
<g>
</g>
<g>
</g>
<g>
</g>
<g>
</g>
<g>
</g>
<g>
</g>
<g>
</g>
</svg>
