<?xml version="1.0" encoding="utf-8"?>
<!-- Generator: Adobe Illustrator 17.0.0, SVG Export Plug-In . SVG Version: 6.00 Build 0)  -->
<!DOCTYPE svg PUBLIC "-//W3C//DTD SVG 1.1//EN" "http://www.w3.org/Graphics/SVG/1.1/DTD/svg11.dtd">
<svg version="1.1" id="Layer_1" xmlns="http://www.w3.org/2000/svg" xmlns:xlink="http://www.w3.org/1999/xlink" x="0px" y="0px"
	 width="354px" height="254px" viewBox="0 0 354 254" enable-background="new 0 0 354 254" xml:space="preserve">
<g>
	<g>
		<g>
			<path fill-rule="evenodd" clip-rule="evenodd" fill="#333333" d="M177.463,197.227c-10.304,0-15.193,7.942-15.193,14.64
				c0,5.128,3.549,13.41,14.736,13.41c12.161,0,15.381-9.882,15.5-14.036C192.683,205.077,187.275,197.227,177.463,197.227z
				 M322.811,238.458L198.714,13.827C194.507,5.549,187.469,0,178.514,0c-9.646,0-15.764,4.34-22.157,13.827L31.501,237.803
				c-3.963,7.113-3.232,16.467,9.029,16.043h273.468C328.103,253.846,327.136,244.983,322.811,238.458z M288.867,239.395
				c-30.509,0-210.994-0.301-221.432,0.333c-20.132,0.028-20.132-2.079-8.799-21.068c0,0,95.203-172.742,105.645-190.117
				c11.521-19.228,15.521-19.228,26.545-1.552c16.368,28.835,91.263,166.278,108.38,194.258
				C304.943,230.748,311.237,239.714,288.867,239.395z M177.859,84.553c-6.081,0.001-15.528,4.083-15.528,13.149l0.155,43.168
				c0,10.16,13.751,38.449,14.531,42.061c1.113-3.509,15.624-30.5,15.624-41.973l-0.15-42.516
				C192.492,88.302,184.803,84.552,177.859,84.553z M176.988,183.317c0.078,0,0.084-0.137,0.03-0.386
				C176.939,183.179,176.923,183.317,176.988,183.317z"/>
		</g>
	</g>
</g>
</svg>
