<?xml version="1.0" encoding="utf-8"?>
<!-- Generator: Adobe Illustrator 17.0.0, SVG Export Plug-In . SVG Version: 6.00 Build 0)  -->
<!DOCTYPE svg PUBLIC "-//W3C//DTD SVG 1.1//EN" "http://www.w3.org/Graphics/SVG/1.1/DTD/svg11.dtd">
<svg version="1.1" id="Layer_1" xmlns="http://www.w3.org/2000/svg" xmlns:xlink="http://www.w3.org/1999/xlink" x="0px" y="0px"
	 width="353px" height="254px" viewBox="0 0 353 254" enable-background="new 0 0 353 254" xml:space="preserve">
<g>
	<g>
		<path fill-rule="evenodd" clip-rule="evenodd" fill="#333333" d="M296.644,98.825c0-17.276-0.003-14.095-0.003-14.095l-46.567,0
			l0.487-0.181c14.205-9.219,21.022-19.04,21.626-25.682c2.213-24.312-24.426-29.262-37.338-25.743
			c-8.243,3.58-34.874,15.518-54.754,29.791c-0.852,0.612-1.605,1.278-2.282,1.987c-18.529-17.504-59.177-31.779-59.177-31.779
			c-19.565-3.577-39.919,2.234-37.553,25.801c0.726,7.231,7.436,16.46,21.698,25.663l0.395,0.145l-46.121,0v56.374l14.091,0.056
			v112.69h211.402l0.003-112.746l14.394,0.054C296.944,141.159,296.644,103.056,296.644,98.825z M218.891,59.007
			c16.934-10.768,27.537-17.421,34.427-5.964c7.472,12.425-10.857,18.096-26.396,27.555c-9.778,5.953-15.339,3.535-43.119,3.535
			C176.34,84.132,198.114,73.261,218.891,59.007z M155.71,239.758H85.24l0.002-98.653h70.468V239.758z M155.71,127.012H71.149
			V98.825h84.561V127.012z M126.54,80.602c-15.601-9.443-33.378-16.322-25.661-27.996c5.677-8.589,18.197-5.175,34.705,4.367
			C157.86,69.849,177.733,84.1,169.796,84.1C148.096,84.1,136.359,86.545,126.54,80.602z M183.896,239.758h-14.093V98.825h14.093
			V239.758z M268.454,239.758H197.99v-98.653h70.467L268.454,239.758z M282.551,127.012H197.99V98.825h84.561V127.012z"/>
	</g>
</g>
</svg>
