<?xml version="1.0" encoding="utf-8"?>
<!-- Generator: Adobe Illustrator 17.0.0, SVG Export Plug-In . SVG Version: 6.00 Build 0)  -->
<!DOCTYPE svg PUBLIC "-//W3C//DTD SVG 1.1//EN" "http://www.w3.org/Graphics/SVG/1.1/DTD/svg11.dtd">
<svg version="1.1" id="Layer_1" xmlns="http://www.w3.org/2000/svg" xmlns:xlink="http://www.w3.org/1999/xlink" x="0px" y="0px"
	 width="352.472px" height="254px" viewBox="0 0 352.472 254" enable-background="new 0 0 352.472 254" xml:space="preserve">
<g>
	<g>
		<path fill-rule="evenodd" clip-rule="evenodd" fill="#333333" d="M183.293,127.001c-7.324,0-18.086,1.453-24.973,9.583
			c-2.942,3.473-3.204,6.303-3.25,10.698c-0.02,1.937,0.001,6.102,0.001,7.942h14.111c0-10.973,5.971-14.111,14.111-14.111
			c10.487,0,14.273,4.472,14.273,9.224c0,4.395-0.163,6.789-6.917,10.391c-2.903,1.549-7.253,3.089-13.537,5.9
			c-4.757,2.128-7.959,5.289-7.959,12.373c0,5.853,0.029,12.118,0.029,18.556h14.111v-14.111c0-7.278,8.51-9.957,15.658-12.181
			c10.453-3.889,12.564-7.798,12.564-16.041c0-11.591-1.376-15.723-4.252-19.599C203.153,130.083,194.278,127.001,183.293,127.001z
			 M169.182,225.778h14.111v-14.111h-14.111V225.778z M98.627,112.89h155.221V98.779H98.627V112.89z M70.403,0v254h211.665V0H70.403
			z M267.958,239.888H84.514V14.111c0,0,11.488,0,28.713,0h126.508c16.709,0,28.222,0,28.222,0V239.888z M98.627,84.668h155.221
			V70.557H98.627V84.668z M98.627,56.446h155.221V42.334H98.627V56.446z"/>
	</g>
</g>
</svg>
