<?xml version="1.0" encoding="utf-8"?>
<!-- Generator: Adobe Illustrator 17.0.0, SVG Export Plug-In . SVG Version: 6.00 Build 0)  -->
<!DOCTYPE svg PUBLIC "-//W3C//DTD SVG 1.1//EN" "http://www.w3.org/Graphics/SVG/1.1/DTD/svg11.dtd">
<svg version="1.1" xmlns="http://www.w3.org/2000/svg" xmlns:xlink="http://www.w3.org/1999/xlink" x="0px" y="0px"
	 width="352.617px" height="254px" viewBox="0 0 352.617 254" enable-background="new 0 0 352.617 254" xml:space="preserve">
<g id="Layer_1">
	<g>
		<g>
			<path fill="#333333" d="M123.312,81.896l-0.08-0.08C123.185,81.864,123.229,81.886,123.312,81.896z M252.049,144.687
				c9.817-14.141,15.446-31.502,15.306-50.883c-0.37-51.474-39.801-93.054-91.047-93.211c-51.32-0.159-91.469,41.738-91.45,94.046
				c0.007,19.266,5.631,36.569,15.355,50.648c-13.742,23.294-43.524,73.779-43.254,73.33l53.693-10.438l11.967,45.228
				c0,0,36.041-51.11,49.391-70.485c1.42,0.042,2.848,0.059,4.286,0.042c1.423-0.017,2.836-0.067,4.241-0.14
				c13.297,19.301,49.459,70.583,49.459,70.583l11.968-45.228l53.693,10.438C295.93,219.071,265.626,167.701,252.049,144.687z
				 M128.426,227.604c-2.714-13.107-9.568-37.111-9.568-37.111l-37.513,11.942c0,0,14.584-24.512,28.051-46.031
				c12.144,12.388,28.099,21.06,46.269,24.678C151.981,186.935,132.39,218.22,128.426,227.604z M177.225,169.418
				c-42.755,0.859-78.751-35.325-78.332-78.219c0.422-43.388,35.586-77.119,78.27-77.04c42.838,0.079,76.038,35.17,76.097,78.314
				C253.319,135.377,220.146,168.555,177.225,169.418z M233.759,190.493c0,0-6.854,24.004-9.568,37.111
				c-4.066-9.626-24.564-42.278-27.479-46.906c18.103-3.884,34.014-12.591,46.129-24.904c13.571,21.662,28.432,46.64,28.432,46.64
				L233.759,190.493z M195.943,73.551l-19.634-33.013c-0.881-0.828-19.571,33.196-19.571,33.196s-31.607,8.398-33.426,8.163
				l26.564,26.505l-7.029,38.56l33.056-19.023l32.666,17.936l-6.215-38.341l27.218-27.474
				C230.117,79.754,195.943,73.551,195.943,73.551z M194.11,125.671l-17.571-10.597l-17.346,11.083l3.283-22.605l-14.472-15.657
				l19.599-3.373l9.202-25.707c0,0,8.124,26.39,8.031,25.467l19.665,2.826l-14.143,16.056L194.11,125.671z"/>
		</g>
	</g>
</g>
<g id="Layer_2">
</g>
</svg>
