<?xml version="1.0" encoding="utf-8"?>
<!-- Generator: Adobe Illustrator 17.0.0, SVG Export Plug-In . SVG Version: 6.00 Build 0)  -->
<!DOCTYPE svg PUBLIC "-//W3C//DTD SVG 1.1//EN" "http://www.w3.org/Graphics/SVG/1.1/DTD/svg11.dtd">
<svg version="1.1" xmlns="http://www.w3.org/2000/svg" xmlns:xlink="http://www.w3.org/1999/xlink" x="0px" y="0px"
	 width="352.617px" height="254px" viewBox="0 0 352.617 254" enable-background="new 0 0 352.617 254" xml:space="preserve">
<g id="Layer_1">
	<g>
		<g>
			<g>
				<polygon fill-rule="evenodd" clip-rule="evenodd" fill="#333333" points="81.814,153.567 81.814,14.288 235.021,14.288 
					235.021,130.24 248.949,130.24 248.949,0.36 67.886,0.36 67.886,153.567 				"/>
			</g>
		</g>
		<g>
			<g>
				<path fill="#333333" d="M218.947,253.64h-53.225c-22.319,0-54.929-19.688-89.452-40.532
					c-20.367-12.298-41.428-25.013-59.782-33.164c-0.156-0.069-0.311-0.145-0.463-0.227c-7.117-3.807-10.452-10.496-8.703-17.457
					c2.991-11.909,19.462-20.553,39.162-20.553c9.188,0,18.769,1.765,28.474,5.245c3.05,1.093,8.119,3.541,15.135,6.93
					c11.4,5.505,28.24,13.637,46.298,20.541c-0.953-2.624-1.153-5.301-0.595-8.022c3.395-16.582,33.983-20.063,59.047-20.063
					c3.33,0,6.821,0.062,10.385,0.182c12.135-1.904,14.516-5.173,17.791-9.669c6.369-8.746,13.693-15.601,42.106-16.731v-13.447
					h80.629v133.679h-80.629v-16.193C250.415,239.078,231.492,253.64,218.947,253.64z M22.488,167.2
					c19.093,8.512,40.434,21.396,61.075,33.858c31.351,18.929,63.77,38.502,82.159,38.502h53.225
					c7.816,0,30.84-17.059,47.709-38.243c1.865-2.344,5.008-3.249,7.841-2.265c2.83,0.987,2.692,3.654,2.692,6.647l-0.429,20.572
					h54.896v-105.52H275.9l1.288,8.381c0,3.868-1.092,4.88-4.967,4.908c-29.876,0.207-33.726,5.493-37.802,11.091
					c-5.04,6.921-10.606,12.858-27.739,15.409c-0.427,0.063-0.854,0.089-1.293,0.073c-3.627-0.131-7.175-0.196-10.545-0.196
					c-35.207,0-44.758,7.06-45.236,8.808c-0.025,1.11,3.354,6.83,20.408,14.097c3.4,1.45,6.909,2.598,10.436,3.416
					c9.223,1.273,17.227,1.211,23.712-0.178c0.684-0.145,1.277-0.213,1.865-0.213c3.893,0,7.12,3.173,7.12,7.061
					c0,6.123-6.197,7.335-9.175,7.917c-2.289,0.448-6.028,0.981-10.84,0.981c-5.018,0-10.141-0.574-15.23-1.708
					c-33.314-4.761-72.738-23.8-93.947-34.042c-6.123-2.957-11.413-5.512-13.76-6.352c-8.175-2.931-16.153-4.417-23.712-4.417
					c-12.796,0-21.058,4.235-24.246,7.862c-1.126,1.282-1.295,2.133-1.277,2.276C20.995,166.032,21.359,166.561,22.488,167.2z
					 M112.493,134.044c-2.966,0-5.616-1.854-6.627-4.64c-0.312-0.858-0.447-1.748-0.418-2.626V7.4c0-3.888,3.156-7.04,7.049-7.04
					h93.143c3.893,0,7.049,3.152,7.049,7.04v119.601c0,2.675-1.518,5.119-3.918,6.308c-2.401,1.189-5.267,0.914-7.399-0.705
					c-3.266-2.483-7.121-5.358-11.524-8.645c-8.32-6.207-18.459-13.775-30.323-22.915c-9.1,6.699-20.783,15.336-29.649,21.888
					l-9.45,6.981c-1.442,1.065-2.512,1.856-3.353,2.442c-0.018,0.016-0.038,0.031-0.056,0.048l-0.004-0.005
					C114.766,133.963,114.189,134.044,112.493,134.044z M119.546,14.44v98.609c0.636-0.47,1.285-0.949,1.943-1.435
					c10.343-7.645,24.518-18.122,33.963-25.061c2.536-1.865,6.009-1.822,8.501,0.109c13.589,10.538,25.091,19.122,34.334,26.019
					c0.101,0.075,0.203,0.151,0.304,0.227V14.44H119.546z"/>
			</g>
		</g>
		<rect x="265.124" y="119.821" fill-rule="evenodd" clip-rule="evenodd" fill="#333333" width="13.921" height="108.255"/>
	</g>
</g>
<g id="Layer_2">
</g>
</svg>
