<?xml version="1.0" encoding="utf-8"?>
<!-- Generator: Adobe Illustrator 17.0.0, SVG Export Plug-In . SVG Version: 6.00 Build 0)  -->
<!DOCTYPE svg PUBLIC "-//W3C//DTD SVG 1.1//EN" "http://www.w3.org/Graphics/SVG/1.1/DTD/svg11.dtd">
<svg version="1.1" xmlns="http://www.w3.org/2000/svg" xmlns:xlink="http://www.w3.org/1999/xlink" x="0px" y="0px"
	 width="352.588px" height="253.407px" viewBox="0 0 352.588 253.407" enable-background="new 0 0 352.588 253.407"
	 xml:space="preserve">
<g id="Layer_1">
	<g>
		<g>
			<path fill-rule="evenodd" clip-rule="evenodd" fill="#333333" d="M155.11,64.868H28.178v14.104H155.11V64.868z M253.834,149.489
				c-23.368,0-42.311,18.942-42.311,42.311c0,23.368,18.942,42.311,42.311,42.311c23.368,0,42.311-18.943,42.311-42.311
				C296.145,168.431,277.203,149.489,253.834,149.489z M253.798,220.036c-15.293,0-27.689-12.659-27.689-28.275
				c0-15.617,12.396-28.277,27.689-28.277s27.69,12.66,27.69,28.277C281.488,207.377,269.091,220.036,253.798,220.036z
				 M338.456,78.971c-42.45-37.168-60.142-56.414-98.725-56.414h-28.207v56.414h-42.311l-19.43,112.827l47.637,0.001
				c0-21.614,5.593-56.414,56.414-56.414c49.147,0,56.414,33.589,56.414,56.414c0,0,30.816,0.061,42.311,0c0,0,0-73.464,0-84.621
				C352.559,107.178,354.315,92.857,338.456,78.971z M225.627,36.66h14.104c28.355,0.042,57.463,21.148,83.349,42.39l-97.452-0.079
				V36.66z M337.838,149.489c0,5.251,0,4.259,0,28.207c-8.622,0-13.486,0-13.486,0s-4.06-32.269-26.448-45.349
				c-22.074-15.097-66.811-14.418-86.333-0.103c-25.445,17.349-28.397,45.183-28.254,45.451h-14.104l14.104-84.621
				c0,0,133.749,0,140.418,0c6.668,0,14.104,4.916,14.104,14.104C337.838,107.178,337.838,140.082,337.838,149.489z M169.213,22.557
				H70.489V36.66h98.725V22.557z M-0.029,121.282h141.035v-14.104H-0.029V121.282z"/>
		</g>
	</g>
</g>
<g id="Layer_2">
</g>
</svg>
