<?xml version="1.0" encoding="utf-8"?>
<!-- Generator: Adobe Illustrator 17.0.0, SVG Export Plug-In . SVG Version: 6.00 Build 0)  -->
<!DOCTYPE svg PUBLIC "-//W3C//DTD SVG 1.1//EN" "http://www.w3.org/Graphics/SVG/1.1/DTD/svg11.dtd">
<svg version="1.1" id="Layer_1" xmlns="http://www.w3.org/2000/svg" xmlns:xlink="http://www.w3.org/1999/xlink" x="0px" y="0px"
	 width="353px" height="254px" viewBox="0 0 353 254" enable-background="new 0 0 353 254" xml:space="preserve">
<g>
	<g>
		<path fill-rule="evenodd" clip-rule="evenodd" fill="#333333" d="M162.39,98.779h98.777V84.668H162.39V98.779z M261.165,28.222V0
			H49.499v225.776h28.223l0,28.222h211.665V28.222L261.165,28.222z M77.722,211.665H63.61V14.111c0,0,137.997,0.001,155.224,0.001
			l-0.001-0.001c16.709,0,28.221,0,28.221,0v14.111l-112.885,0.001L77.724,84.668L77.722,211.665z M134.168,51.558v33.109h-33.925
			L134.168,51.558z M275.276,239.888H91.832l0.003-141.109h56.444V42.334c0,0,87.895,0,98.777,0l-0.001-0.001
			c16.709,0,28.221,0,28.221,0V239.888z M162.39,70.557h98.777V56.446H162.39V70.557z"/>
	</g>
</g>
<g>
	<path fill="#333333" d="M218.842,155.175c-0.474,0.012-8.024-0.016-8.024-0.016c-2.162,13.392-12.179,26.319-28.011,28.201
		c10.392,11.09,31.636,28.624,31.636,28.624h-20.967c0,0-31.116-28.059-31.116-28.617v-14.086h10.501
		c12.275,0,21.115-6.479,23.138-14.082c0,0-33.146-0.02-33.617-0.02l-0.012-14.046c0.404,0,33.303,0,33.303,0
		c-0.361-4.981-4.922-14.326-14.687-14.326c0,0-16.797,0.021-18.627,0.021l0.011-14.084c1.83,0,52.146,0,56.494,0v14.223
		c-4.096,0-17.322,0-17.322,0c6.568,1.755,8.931,10.255,9.303,14.167c0,0,6.138,0.021,7.997,0.021V155.175z"/>
</g>
</svg>
