<?xml version="1.0" encoding="utf-8"?>
<!-- Generator: Adobe Illustrator 17.0.0, SVG Export Plug-In . SVG Version: 6.00 Build 0)  -->
<!DOCTYPE svg PUBLIC "-//W3C//DTD SVG 1.1//EN" "http://www.w3.org/Graphics/SVG/1.1/DTD/svg11.dtd">
<svg version="1.1" xmlns="http://www.w3.org/2000/svg" xmlns:xlink="http://www.w3.org/1999/xlink" x="0px" y="0px"
	 width="352.617px" height="254px" viewBox="0 0 352.617 254" enable-background="new 0 0 352.617 254" xml:space="preserve">
<g id="Layer_1">
	<g>
		<g>
			<path fill-rule="evenodd" clip-rule="evenodd" fill="#333333" d="M175.918,51.513c-37.713,0.096-62.986,24.452-62.986,61.651
				c0,42.291,28.169,49.514,28.169,70.418c0,8.802,0,14.084,0,14.084h70.417c0-6.162,0,0,0-14.084
				c0-23.294,28.169-29.957,28.169-70.418C239.686,75.947,213.166,51.419,175.918,51.513z M197.433,183.583c0,0-36.529,0-42.25,0
				c-5.042-32.794-28.169-34.794-28.169-70.418c0-29.683,19.109-47.379,49.367-47.582c29.742-0.199,49.219,17.861,49.219,47.582
				C224.718,143.954,197.433,151.789,197.433,183.583z M253.769,99.079v14.085h42.25V99.079H253.769z M56.598,113.165h42.25V99.079
				h-42.25V113.165z M141.1,225.834h70.417V211.75H141.1V225.834z M141.1,254h70.417v-14.082H141.1V254z M284.635,36.539
				l-12.75-6.23l-15.156,29.48l11.124,11.124L284.635,36.539z M96.012,59.667L81.12,30.309l-13.235,5.98l16.88,34.624L96.012,59.667
				z M183.349,0.495h-14.082v28.167h14.082V0.495z"/>
		</g>
	</g>
	<g>
		<path fill="none" d="M-53.006,323.5h7v-1h-7V323.5z M245.994,202.5h-4v1h1c0.781,0.156,1,1,1,1h-2v1h2
			c-0.014,0.466-0.522,0.925-1.634,1.005c-0.386-0.016-0.697,0.386,0.237,1.066c1.292,1.243,2.398,1.929,2.398,1.929l1-1
			l-2.541-1.404c0,0,1.541-0.523,1.541-1.597c0.1,0,1,0,1,0v-1c0,0-0.25,0-1,0c-0.094-0.563-0.451-0.848-1-1h2V202.5z
			 M241.51,208.362l-2.144-5.645l7.083-2.812l2.939,7.74l1.086-0.099l-3.362-9.046l-9.117,3.537l2.389,6.427L241.51,208.362z
			 M-46.006,316.5h-15v16h2v2h15v-16h-2V316.5z M-59.006,331.5h-1v-14c0,0,9.78,0,11,0v0c1.184,0,2,0,2,0v1l-8,0l-4,4L-59.006,331.5
			z M-55.006,320.154v2.346h-2.404L-55.006,320.154z M-45.006,319.5v14h-13l0-10h4v-4c0,0,6.229,0,7,0v0
			C-45.822,319.5-45.006,319.5-45.006,319.5z M-39.006,286.5h5v-1h-5V286.5z M-27.006,282.5h-1v2h-2v1h2v2h1v-2h2v-1h-2V282.5z
			 M-27.506,280.5c-2.485,0-4.5,2.015-4.5,4.5c0,2.485,2.015,4.5,4.5,4.5c2.485,0,4.5-2.015,4.5-4.5
			C-23.006,282.515-25.021,280.5-27.506,280.5z M-27.506,288.5c-1.933,0-3.5-1.567-3.5-3.5s1.567-3.5,3.5-3.5
			c1.933,0,3.5,1.567,3.5,3.5S-25.573,288.5-27.506,288.5z M251.146,205.181c0.117,0.567,0.17,1.064,0.162,1.495l0.67,0.483
			l0.016,1.341c0.03,0.097-6.726,2.923-7.487,2.985l6.496-2.52l-0.019-0.052l-6.549,2.595l-1.461-0.579l-0.425,0.169l-0.151-0.397
			l-1.386-0.55l0.019,0.05c-1.965-0.805-4.033-1.691-4.036-1.701l-0.026-1.388l0.833-0.579c-0.191-0.314-0.353-0.651-0.479-1.012
			l-1.328,0.979v10h17v-10C252.996,206.492,252.222,205.942,251.146,205.181z M236.994,209.5l4.43,1.76l0.462,1.242l1.264-0.49
			c0.285,0.25,0.276,0.511-0.124,0.714c-0.49,0.248-6.024,2.767-6.031,2.775V209.5z M238.551,215.463l6.047-2.346
			c0.638,0.351,5.054,2.254,5.633,2.395L238.551,215.463z M251.994,215.5c-0.001,0.02-5.13-2.115-6.008-2.743
			c-0.477-0.377-0.3-0.661-0.003-0.762c2.147-0.733,6.001-2.467,6.01-2.495V215.5z M-39.006,288.5h6v-1h-6V288.5z M-27.006,290.475
			v0.025h-13v-9h7.5c0.146-0.351,0.326-0.683,0.529-1h-9.029v11h15v-1.025c-0.166,0.013-0.331,0.025-0.5,0.025
			C-26.675,290.5-26.841,290.487-27.006,290.475z M-34.006,283.5h-5v1h5V283.5z M-53.006,321.5h7v-1h-7V321.5z"/>
	</g>
</g>
<g id="Layer_2">
</g>
</svg>
