<?xml version="1.0" encoding="utf-8"?>
<!-- Generator: Adobe Illustrator 17.0.0, SVG Export Plug-In . SVG Version: 6.00 Build 0)  -->
<!DOCTYPE svg PUBLIC "-//W3C//DTD SVG 1.1//EN" "http://www.w3.org/Graphics/SVG/1.1/DTD/svg11.dtd">
<svg version="1.1" id="Layer_1" xmlns="http://www.w3.org/2000/svg" xmlns:xlink="http://www.w3.org/1999/xlink" x="0px" y="0px"
	 width="353.492px" height="254px" viewBox="0 0 353.492 254" enable-background="new 0 0 353.492 254" xml:space="preserve">
<g>
	<g>
		<path fill-rule="evenodd" clip-rule="evenodd" fill="#333333" d="M78.224,84.721h126.958V70.613h-14.105V28.295h-49.702L141.373,0
			h-13.732v28.295h-35.31v14.107h84.639v28.212H92.33V28.295H78.224v42.318H64.116v56.426H50.01v126.959h98.747v-14.105H92.331
			v-14.107h56.426V211.68H78.224v28.213H64.118v-98.746h84.639v-14.107H78.224V84.721z M78.224,197.574h70.531v-14.107H78.224
			V197.574z M148.756,155.254H78.224v14.107h70.531V155.254z M162.864,98.828V254h126.959V98.828H162.864z M275.716,239.893H176.97
			V112.934h98.746V239.893z M148.756,112.934V98.826H92.331v14.108H148.756z"/>
	</g>
</g>
<g>
	<rect x="191.077" y="211.68" fill-rule="evenodd" clip-rule="evenodd" fill="#333333" width="70.533" height="14.107"/>
	<rect x="191.077" y="183.467" fill-rule="evenodd" clip-rule="evenodd" fill="#333333" width="70.533" height="14.107"/>
	<rect x="191.077" y="155.254" fill-rule="evenodd" clip-rule="evenodd" fill="#333333" width="70.533" height="14.107"/>
	<rect x="191.077" y="127.041" fill-rule="evenodd" clip-rule="evenodd" fill="#333333" width="70.533" height="14.107"/>
</g>
</svg>
